{
  "accessors": [
    {
      "bufferView": 2,
      "componentType": 5126,
      "count": 10584,
      "max": [
        20.820842742919922,
        26.543188095092773,
        14.896495819091797
      ],
      "min": [
        -20.595582962036133,
        -33.880149841308594,
        -35.097450256347656
      ],
      "type": "VEC3"
    },
    {
      "bufferView": 2,
      "byteOffset": 127008,
      "componentType": 5126,
      "count": 10584,
      "max": [
        0.99997979402542114,
        0.99964988231658936,
        0.99988418817520142
      ],
      "min": [
        -0.99932944774627686,
        -0.99882698059082031,
        -0.99988377094268799
      ],
      "type": "VEC3"
    },
    {
      "bufferView": 3,
      "componentType": 5126,
      "count": 10584,
      "max": [
        0,
        0,
        0,
        1
      ],
      "min": [
        0,
        0,
        0,
        1
      ],
      "type": "VEC4"
    },
    {
      "bufferView": 1,
      "componentType": 5126,
      "count": 10584,
      "max": [
        0.97530150413513184,
        0.97495919466018677
      ],
      "min": [
        0.029754457995295525,
        0.02723989449441433
      ],
      "type": "VEC2"
    },
    {
      "bufferView": 0,
      "componentType": 5125,
      "count": 10584,
      "max": [
        10583
      ],
      "min": [
        0
      ],
      "type": "SCALAR"
    },
    {
      "bufferView": 2,
      "byteOffset": 254016,
      "componentType": 5126,
      "count": 14856,
      "max": [
        28.479211807250977,
        38.469474792480469,
        35.224655151367188
      ],
      "min": [
        -0.73365497589111328,
        -38.607841491699219,
        -19.793926239013672
      ],
      "type": "VEC3"
    },
    {
      "bufferView": 2,
      "byteOffset": 432288,
      "componentType": 5126,
      "count": 14856,
      "max": [
        0.99996882677078247,
        0.99970662593841553,
        0.99856823682785034
      ],
      "min": [
        -0.99990254640579224,
        -0.99934858083724976,
        -0.99987119436264038
      ],
      "type": "VEC3"
    },
    {
      "bufferView": 3,
      "byteOffset": 169344,
      "componentType": 5126,
      "count": 14856,
      "max": [
        0,
        0,
        0,
        1
      ],
      "min": [
        0,
        0,
        0,
        1
      ],
      "type": "VEC4"
    },
    {
      "bufferView": 1,
      "byteOffset": 84672,
      "componentType": 5126,
      "count": 14856,
      "max": [
        0.97501069307327271,
        0.97503209114074707
      ],
      "min": [
        0.028507702052593231,
        0.026419227942824364
      ],
      "type": "VEC2"
    },
    {
      "bufferView": 0,
      "byteOffset": 42336,
      "componentType": 5125,
      "count": 14856,
      "max": [
        14855
      ],
      "min": [
        0
      ],
      "type": "SCALAR"
    },
    {
      "bufferView": 2,
      "byteOffset": 610560,
      "componentType": 5126,
      "count": 14856,
      "max": [
        0.73365497589111328,
        38.469474792480469,
        35.224655151367188
      ],
      "min": [
        -28.479211807250977,
        -38.607841491699219,
        -19.793922424316406
      ],
      "type": "VEC3"
    },
    {
      "bufferView": 2,
      "byteOffset": 788832,
      "componentType": 5126,
      "count": 14856,
      "max": [
        0.99990254640579224,
        0.99970662593841553,
        0.99856823682785034
      ],
      "min": [
        -0.99996882677078247,
        -0.99934858083724976,
        -0.99987119436264038
      ],
      "type": "VEC3"
    },
    {
      "bufferView": 3,
      "byteOffset": 407040,
      "componentType": 5126,
      "count": 14856,
      "max": [
        0,
        0,
        0,
        1
      ],
      "min": [
        0,
        0,
        0,
        1
      ],
      "type": "VEC4"
    },
    {
      "bufferView": 1,
      "byteOffset": 203520,
      "componentType": 5126,
      "count": 14856,
      "max": [
        0.97501069307327271,
        0.97503209114074707
      ],
      "min": [
        0.028507702052593231,
        0.026419227942824364
      ],
      "type": "VEC2"
    },
    {
      "bufferView": 0,
      "byteOffset": 101760,
      "componentType": 5125,
      "count": 14856,
      "max": [
        14855
      ],
      "min": [
        0
      ],
      "type": "SCALAR"
    },
    {
      "bufferView": 4,
      "componentType": 5126,
      "count": 92,
      "max": [
        3.3333332538604736
      ],
      "min": [
        0.3333333432674408
      ],
      "type": "SCALAR"
    },
    {
      "bufferView": 5,
      "componentType": 5126,
      "count": 92,
      "max": [
        26,
        7.8517814472434111e-06,
        1.9721522630525295e-31
      ],
      "min": [
        0,
        0,
        -1.9721522630525295e-31
      ],
      "type": "VEC3"
    },
    {
      "bufferView": 4,
      "byteOffset": 368,
      "componentType": 5126,
      "count": 93,
      "max": [
        3.3333332538604736
      ],
      "min": [
        0.3333333432674408
      ],
      "type": "SCALAR"
    },
    {
      "bufferView": 6,
      "componentType": 5126,
      "count": 93,
      "max": [
        1.3084360134720533e-16,
        0.1736481785774231,
        3.7474739363612625e-17,
        1
      ],
      "min": [
        1.1089051604732371e-16,
        0,
        -7.9377998586042248e-17,
        0.98480772972106934
      ],
      "type": "VEC4"
    },
    {
      "bufferView": 4,
      "byteOffset": 740,
      "componentType": 5126,
      "count": 92,
      "max": [
        3.3333332538604736
      ],
      "min": [
        0.3333333432674408
      ],
      "type": "SCALAR"
    },
    {
      "bufferView": 5,
      "byteOffset": 1104,
      "componentType": 5126,
      "count": 92,
      "max": [
        0,
        0,
        1.9721522630525295e-31
      ],
      "min": [
        -26,
        -7.8517814472434111e-06,
        -1.9721522630525295e-31
      ],
      "type": "VEC3"
    },
    {
      "bufferView": 4,
      "byteOffset": 1108,
      "componentType": 5126,
      "count": 93,
      "max": [
        3.3333332538604736
      ],
      "min": [
        0.3333333432674408
      ],
      "type": "SCALAR"
    },
    {
      "bufferView": 6,
      "byteOffset": 1488,
      "componentType": 5126,
      "count": 93,
      "max": [
        1.2392187144100858e-17,
        -0,
        3.4047253629772601e-17,
        1
      ],
      "min": [
        -2.3999788514111493e-17,
        -0.34202015399932861,
        -6.7458134053251007e-17,
        0.93969261646270752
      ],
      "type": "VEC4"
    },
    {
      "bufferView": 4,
      "byteOffset": 1480,
      "componentType": 5126,
      "count": 110,
      "max": [
        3.6666667461395264
      ],
      "min": [
        0
      ],
      "type": "SCALAR"
    },
    {
      "bufferView": 6,
      "byteOffset": 2976,
      "componentType": 5126,
      "count": 110,
      "max": [
        0.49803927540779114,
        0.70710676908493042,
        0.70710676908493042,
        0.70710676908493042
      ],
      "min": [
        -0.70710676908493042,
        -0.48295298218727112,
        -0.48295298218727112,
        -0.49803927540779114
      ],
      "type": "VEC4"
    }
  ],
  "animations": [
    {
      "channels": [
        {
          "sampler": 0,
          "target": {
            "node": 7,
            "path": "translation"
          }
        },
        {
          "sampler": 1,
          "target": {
            "node": 7,
            "path": "rotation"
          }
        },
        {
          "sampler": 2,
          "target": {
            "node": 9,
            "path": "translation"
          }
        },
        {
          "sampler": 3,
          "target": {
            "node": 9,
            "path": "rotation"
          }
        },
        {
          "sampler": 4,
          "target": {
            "node": 5,
            "path": "rotation"
          }
        }
      ],
      "name": "Take 001",
      "samplers": [
        {
          "input": 15,
          "interpolation": "LINEAR",
          "output": 16
        },
        {
          "input": 17,
          "interpolation": "LINEAR",
          "output": 18
        },
        {
          "input": 19,
          "interpolation": "LINEAR",
          "output": 20
        },
        {
          "input": 21,
          "interpolation": "LINEAR",
          "output": 22
        },
        {
          "input": 23,
          "interpolation": "LINEAR",
          "output": 24
        }
      ]
    }
  ],
  "asset": {
    "extras": {
      "author": "Oleg Shuldyakov (https://sketchfab.com/shuographics)",
      "license": "SKETCHFAB Standard (https://sketchfab.com/licenses)",
      "source": "https://sketchfab.com/models/9dc01029d5df4520b6de505dbb83b070",
      "title": "Low Polygon Art Medical Brain Roentgen"
    },
    "generator": "Sketchfab-3.18.4",
    "version": "2.0"
  },
  "bufferViews": [
    {
      "buffer": 0,
      "byteLength": 161184,
      "byteOffset": 0,
      "name": "floatBufferViews",
      "target": 34963
    },
    {
      "buffer": 0,
      "byteLength": 322368,
      "byteOffset": 161184,
      "byteStride": 8,
      "name": "floatBufferViews",
      "target": 34962
    },
    {
      "buffer": 0,
      "byteLength": 967104,
      "byteOffset": 483552,
      "byteStride": 12,
      "name": "floatBufferViews",
      "target": 34962
    },
    {
      "buffer": 0,
      "byteLength": 644736,
      "byteOffset": 1450656,
      "byteStride": 16,
      "name": "floatBufferViews",
      "target": 34962
    },
    {
      "buffer": 0,
      "byteLength": 1920,
      "byteOffset": 2095392,
      "name": "floatBufferViews"
    },
    {
      "buffer": 0,
      "byteLength": 2208,
      "byteOffset": 2097312,
      "byteStride": 12,
      "name": "floatBufferViews"
    },
    {
      "buffer": 0,
      "byteLength": 4736,
      "byteOffset": 2099520,
      "byteStride": 16,
      "name": "floatBufferViews"
    }
  ],
  "buffers": [
    {
      "byteLength": 2104256,
      "uri": "scene.bin"
    }
  ],
  "images": [
    {
      "uri": "textures/08_-_Default_baseColor.png"
    },
    {
      "uri": "textures/08_-_Default_emissive.png"
    }
  ],
  "materials": [
    {
      "alphaMode": "BLEND",
      "doubleSided": true,
      "emissiveFactor": [
        0.20000000000000001,
        0.20000000000000001,
        0.20000000000000001
      ],
      "emissiveTexture": {
        "index": 1,
        "texCoord": 0
      },
      "name": "08_-_Default",
      "pbrMetallicRoughness": {
        "baseColorFactor": [
          1,
          1,
          1,
          0.66901676830000001
        ],
        "baseColorTexture": {
          "index": 0,
          "texCoord": 0
        },
        "metallicFactor": 1,
        "roughnessFactor": 0.059260670699999962
      }
    }
  ],
  "meshes": [
    {
      "name": "centr_08 - Default_0",
      "primitives": [
        {
          "attributes": {
            "NORMAL": 1,
            "POSITION": 0,
            "TANGENT": 2,
            "TEXCOORD_0": 3
          },
          "indices": 4,
          "material": 0,
          "mode": 4
        }
      ]
    },
    {
      "name": "right_08 - Default_0",
      "primitives": [
        {
          "attributes": {
            "NORMAL": 6,
            "POSITION": 5,
            "TANGENT": 7,
            "TEXCOORD_0": 8
          },
          "indices": 9,
          "material": 0,
          "mode": 4
        }
      ]
    },
    {
      "name": "left_08 - Default_0",
      "primitives": [
        {
          "attributes": {
            "NORMAL": 11,
            "POSITION": 10,
            "TANGENT": 12,
            "TEXCOORD_0": 13
          },
          "indices": 14,
          "material": 0,
          "mode": 4
        }
      ]
    }
  ],
  "nodes": [
    {
      "children": [
        1
      ],
      "name": "RootNode (gltf orientation matrix)",
      "rotation": [
        -0.70710678118654746,
        -0,
        -0,
        0.70710678118654757
      ]
    },
    {
      "children": [
        2
      ],
      "name": "RootNode (model correction matrix)"
    },
    {
      "children": [
        3
      ],
      "matrix": [
        1,
        0,
        0,
        0,
        0,
        0,
        1,
        0,
        0,
        -1,
        0,
        0,
        0,
        0,
        0,
        1
      ],
      "name": "brain_color_3.FBX"
    },
    {
      "children": [
        4
      ],
      "name": ""
    },
    {
      "children": [
        5
      ],
      "name": "RootNode"
    },
    {
      "children": [
        6,
        7,
        9
      ],
      "name": "centr",
      "rotation": [
        -0.7071068286895752,
        -0,
        0,
        0.7071068286895752
      ]
    },
    {
      "mesh": 0,
      "name": "centr_08 - Default_0"
    },
    {
      "children": [
        8
      ],
      "name": "right",
      "rotation": [
        -8.7422776573475858e-08,
        -0,
        0,
        1
      ]
    },
    {
      "mesh": 1,
      "name": "right_08 - Default_0"
    },
    {
      "children": [
        10
      ],
      "name": "left"
    },
    {
      "mesh": 2,
      "name": "left_08 - Default_0"
    }
  ],
  "samplers": [
    {
      "magFilter": 9729,
      "minFilter": 9987,
      "wrapS": 10497,
      "wrapT": 10497
    }
  ],
  "scene": 0,
  "scenes": [
    {
      "name": "OSG_Scene",
      "nodes": [
        0
      ]
    }
  ],
  "textures": [
    {
      "sampler": 0,
      "source": 0
    },
    {
      "sampler": 0,
      "source": 1
    }
  ]
}

